<?xml version="1.0" encoding="UTF-8"?><svg id="FaceCake_Building" xmlns="http://www.w3.org/2000/svg" width="924.07" height="903.97" xmlns:xlink="http://www.w3.org/1999/xlink" viewBox="0 0 924.07 903.97"><defs><clipPath id="clippath"><polygon points="52.19 157.46 52.21 119.45 322.13 133.18 322.01 171.92 52.19 157.46" fill="none"/></clipPath><clipPath id="clippath-1"><polygon points="52.04 180.86 52.04 159.85 321.3 173.7 321.23 195.12 52.04 180.86" fill="none"/></clipPath></defs><g id="Right_Building"><polygon points="391.1 786.88 389.87 712.82 430.96 719.65 432.1 794.18 391.1 786.88" fill="#667aac"/><polygon points="434.39 720.21 435.52 794.79 432.1 794.18 430.96 719.65 434.39 720.21" fill="#5ea1c2"/><polygon points="389.27 676.41 388.03 601.83 429.25 607.94 430.4 682.99 389.27 676.41" fill="#667aac"/><polygon points="432.69 608.45 433.83 683.54 430.4 682.99 429.25 607.94 432.69 608.45" fill="#5ea1c2"/><polygon points="387.43 565.16 386.18 490.06 427.53 495.45 428.69 571.03 387.43 565.16" fill="#667aac"/><polygon points="432.13 571.52 430.98 495.9 485.16 502.95 486.19 579.21 432.13 571.52" fill="#667aac"/><polygon points="430.99 495.9 432.13 571.52 428.69 571.03 427.53 495.45 430.99 495.9" fill="#5ea1c2"/><polygon points="435.52 794.79 434.39 720.21 488.21 729.15 489.23 804.35 435.52 794.79" fill="#667aac"/><polygon points="491.7 729.73 492.71 804.97 489.23 804.35 488.21 729.15 491.7 729.73" fill="#5ea1c2"/><polygon points="492.71 804.97 491.7 729.73 544.94 738.57 545.83 814.42 492.71 804.97" fill="#667aac"/><polygon points="385.57 453.14 384.32 377.51 425.8 382.16 426.97 458.28 385.57 453.14" fill="#667aac"/><polygon points="429.27 382.55 430.42 458.71 426.97 458.28 425.8 382.16 429.27 382.55" fill="#5ea1c2"/><polygon points="430.42 458.71 429.27 382.55 483.62 388.64 484.66 465.45 430.42 458.71" fill="#667aac"/><polygon points="433.83 683.54 432.69 608.45 486.69 616.45 487.71 692.17 433.83 683.54" fill="#667aac"/><polygon points="490.19 616.97 491.21 692.73 487.71 692.17 486.69 616.45 490.19 616.97" fill="#5ea1c2"/><polygon points="488.68 503.41 489.7 579.71 486.19 579.21 485.16 502.95 488.68 503.41" fill="#5ea1c2"/><polygon points="484.66 465.45 746.55 403.37 749.97 403.74 488.17 465.88 484.66 465.45" fill="#ddd"/><polygon points="549.38 815.05 548.49 739.16 601.49 747.96 602.26 824.46 549.38 815.05" fill="#667aac"/><polygon points="548.49 739.16 549.38 815.05 545.83 814.42 544.94 738.57 548.49 739.16" fill="#5ea1c2"/><polygon points="487.15 389.04 488.17 465.88 484.66 465.45 483.62 388.64 487.15 389.04" fill="#5ea1c2"/><polygon points="491.21 692.73 490.19 616.97 543.61 624.88 544.5 701.27 491.21 692.73" fill="#667aac"/><polygon points="547.17 625.41 548.06 701.84 544.5 701.27 543.61 624.88 547.17 625.41" fill="#5ea1c2"/><polygon points="489.7 579.71 488.68 503.41 542.27 510.38 543.17 587.32 489.7 579.71" fill="#667aac"/><polygon points="545.85 510.85 546.74 587.83 543.17 587.32 542.27 510.38 545.85 510.85" fill="#5ea1c2"/><polygon points="605.11 748.56 605.87 825.1 602.26 824.46 601.49 747.96 605.11 748.56" fill="#5ea1c2"/><polygon points="488.17 465.88 487.15 389.04 540.92 395.06 541.82 472.55 488.17 465.88" fill="#667aac"/><polygon points="544.51 395.47 545.41 473 541.82 472.55 540.92 395.06 544.51 395.47" fill="#5ea1c2"/><polygon points="548.06 701.84 547.17 625.41 600.35 633.29 601.12 710.34 548.06 701.84" fill="#667aac"/><polygon points="603.98 633.83 604.74 710.92 601.12 710.34 600.35 633.29 603.98 633.83" fill="#5ea1c2"/><polygon points="774.34 795.82 662.98 835.27 649.76 832.92 774.12 789.19 774.34 795.82" fill="#aaaaad"/><polygon points="775.34 862.41 663.53 903.97 662.98 835.27 773.11 796.42 775.34 862.41" fill="#d6d6d6"/><polygon points="662.98 835.27 663.54 903.97 392.19 852.81 391.1 786.88 432.1 794.18 435.52 794.79 489.23 804.35 492.71 804.97 545.83 814.42 549.38 815.05 602.26 824.46 605.87 825.1 649.76 832.91 662.98 835.27" fill="#d7d7d7"/><polygon points="546.74 587.83 545.85 510.85 599.2 517.8 599.98 595.4 546.74 587.83" fill="#667aac"/><polygon points="605.11 748.56 649.11 755.87 649.76 832.91 605.87 825.1 605.11 748.56" fill="#667aac"/><polygon points="774.23 789.18 649.76 832.92 649.11 755.87 662.31 751.58 771.73 715.34 774.23 789.18" fill="#667aac"/><polygon points="602.85 518.27 603.61 595.92 599.98 595.4 599.2 517.8 602.85 518.27" fill="#5ea1c2"/><polygon points="771.73 722.1 662.36 758.07 662.31 751.58 662.05 720.1 770.5 685.56 771.73 722.1" fill="#d6d6d6"/><polygon points="385.56 453.04 393.15 449.16 392.34 378.36 384.29 377.51 385.56 453.04" fill="#898989"/><polygon points="387.43 565.17 395.13 560.24 394.55 491.4 386.18 490.06 387.43 565.17" fill="#898989"/><polygon points="389.28 676.48 397.23 672.29 396.29 603.11 388.03 601.83 389.28 676.48" fill="#898989"/><polygon points="391.11 786.9 398.31 782.1 396.93 714.01 389.87 712.82 391.11 786.9" fill="#898989"/><polygon points="383.44 325.28 389.61 321.37 389.42 310.31 383.26 309.66 383.44 325.28" fill="#898989"/><polygon points="769.98 685.56 662.05 720.1 662.05 713.82 769.78 679.53 769.98 685.56" fill="#aaaaad"/><polygon points="662.06 720.1 662.36 758.07 389.87 712.82 389.27 676.41 430.4 682.99 433.83 683.54 487.71 692.17 491.21 692.73 544.5 701.27 548.06 701.84 601.12 710.34 604.74 710.92 648.79 717.98 662.06 720.1" fill="#d7d7d7"/><polygon points="545.41 473 544.51 395.47 598.05 401.47 598.83 479.63 545.41 473" fill="#667aac"/><polygon points="598.05 401.47 857.25 342.55 857.39 415.54 598.83 479.63 598.05 401.47" fill="#667aac"/><polygon points="603.98 633.83 648.14 640.37 648.79 717.98 604.74 710.92 603.98 633.83" fill="#667aac"/><polygon points="768.44 617.18 770.71 679.62 648.8 717.97 648.14 640.36 767.85 605.18 768.21 617.23 768.44 617.18" fill="#667aac"/><polygon points="601.7 401.88 602.47 480.09 598.83 479.63 598.05 401.47 601.7 401.88" fill="#5ea1c2"/><polygon points="661.12 604.1 661.43 642.34 388.03 601.83 387.43 565.16 428.69 571.03 432.13 571.52 486.19 579.21 489.7 579.71 543.17 587.32 546.74 587.83 599.98 595.4 603.61 595.92 647.81 602.21 661.12 604.1" fill="#d7d7d7"/><polygon points="892.07 563.94 892.07 563.78 884.35 565.44 767.7 600.35 768.13 610.91 661.44 642.34 661.13 604.1 920.01 530.26 920.35 555.95 892.07 563.94" fill="#d6d6d6"/><polygon points="655.72 597.97 908.62 526.78 920.09 530.38 661.12 604.1 655.72 597.97" fill="#aaaaad"/><polygon points="646.92 522.18 907.11 454.41 908.54 526.85 647.58 600.35 646.92 522.18" fill="#667aac"/><polygon points="602.85 518.27 647.15 524.04 647.81 602.21 603.61 595.92 602.85 518.27" fill="#667aac"/><polygon points="660.18 487.26 918.91 422.31 919.86 458.03 660.49 525.78 660.18 487.26" fill="#d6d6d6"/><polygon points="657.33 481.61 905.88 419.27 918.91 422.31 660.18 487.26 657.33 481.61" fill="#aaaaad"/><polygon points="660.18 487.26 660.49 525.78 386.18 490.06 385.57 453.14 426.97 458.28 430.42 458.71 484.66 465.45 488.17 465.88 541.82 472.55 545.41 473 598.83 479.63 602.47 480.09 646.83 485.6 660.18 487.26" fill="#d7d7d7"/><polygon points="601.7 401.88 646.16 406.86 646.83 485.6 602.47 480.09 601.7 401.88" fill="#667aac"/><polygon points="646.16 406.86 905.88 347.16 905.82 419.37 645.11 485.02 646.16 406.86" fill="#667aac"/><polygon points="383.46 325.32 649.14 273.18 917.09 297.58 659.11 353.89 383.46 325.32" fill="#aaaaad"/><polygon points="645.56 336.14 903.85 281.18 903.85 296.44 645.7 352.5 645.56 336.14" fill="#8a9093"/><polygon points="383.2 309.61 649.02 258.48 903.85 281.18 645.56 336.14 383.2 309.61" fill="#909699"/><polygon points="645.56 336.14 645.7 352.5 383.46 325.32 383.2 309.61 645.56 336.14" fill="#8b9094"/><polygon points="659.11 353.89 917.09 297.58 917.85 348.44 659.55 408.36 659.11 353.89" fill="#d6d6d6"/><polygon points="659.11 353.89 659.55 408.36 384.32 377.51 383.46 325.32 659.11 353.89" fill="#d7d7d7"/><polygon points="382.76 283.1 648.82 233.69 916.84 256.3 658.75 309.58 382.76 283.1" fill="#aaaaad"/><polygon points="658.75 309.58 658.98 337.24 383.2 309.61 382.76 283.1 658.75 309.58" fill="#d7d7d7"/><polygon points="658.75 309.58 916.84 256.3 916.84 282.09 658.98 337.24 658.75 309.58" fill="#d6d6d6"/><polygon points="746.55 617.23 736.24 620.2 737.94 689.8 748.38 692.9 746.55 617.23" fill="#aaaaad"/><polygon points="748.38 729.61 737.94 733.42 739.21 802.03 750.5 805 748.38 729.61" fill="#aaaaad"/><polygon points="383.44 325.31 389.61 321.33 658.64 349.66 658.93 353.84 383.44 325.31" fill="#aaaaad"/><polygon points="385.53 453.11 393.24 449.16 657.22 481.63 660.04 487.14 385.53 453.11" fill="#aaaaad"/><polygon points="395.09 560.27 658.13 598.31 661.12 604.1 387.4 565.14 395.09 560.27" fill="#aaaaad"/><polygon points="389.37 676.38 397.28 672.29 661.84 713.8 662.06 720.1 389.37 676.38" fill="#aaaaad"/><polygon points="391.1 786.85 398.31 782.13 659.87 829.28 662.98 835.27 391.1 786.85" fill="#aaaaad"/><g id="Door_right-side"><g id="Door_right-side_stay"><polygon points="762.08 877.37 749.84 872.38 742.31 580.99 752.56 587.83 762.08 877.37" fill="#aaaaad"/><polygon points="777.73 872.44 761.63 877.99 752.59 587.83 767.7 600.35 777.73 872.44" fill="#c7c7c7"/><polygon points="767.7 600.35 752.2 587.84 905.86 542.42 892.07 563.78 767.7 600.35" fill="#c7c7c7"/><polygon points="742.31 580.99 893.83 536.94 906.18 542.42 752.59 587.83 742.31 580.99" fill="#aaaaad"/></g></g><polygon points="393.04 379.49 393.15 449.16 658.17 481.7 905.89 419.27 905.87 351.55 659.58 408.48 660.08 456.9 412.11 429.47 411.68 380.34 393.04 379.49" opacity=".12"/><polygon points="394.53 491.3 395.16 560.34 655.72 597.94 908.54 526.85 907.24 461.33 660.5 525.89 661.74 575.16 414.79 540.15 413.94 493.7 394.53 491.3" opacity=".12"/><polygon points="396.29 603.11 397.23 672.29 662.13 713.8 737.94 689.8 736.1 620.34 661.47 642.45 662.56 688.95 416.8 653.13 416.54 606.05 396.29 603.11" opacity=".12"/><polygon points="396.93 714.01 398.31 782.1 660.15 829.42 739.21 802.03 737.98 733.47 662.31 758.13 662.15 806.13 421.84 765.18 421.14 718.02 396.93 714.01" opacity=".12"/></g><g id="Left_Building"><polygon points="26.88 529.11 26.32 508.94 77.94 516.25 71.53 535.58 26.88 529.11" fill="#586e98"/><polygon points="26.32 508.94 25.11 465.43 91.83 474.37 77.94 516.25 26.32 508.94" fill="#667aac"/><polygon points="22.99 388.99 22.42 368.65 74.24 374.74 67.81 394.41 22.99 388.99" fill="#586e98"/><polygon points="22.42 368.65 21.21 324.75 88.18 332.12 74.24 374.74 22.42 368.65" fill="#667aac"/><polygon points="368.45 206.66 636.82 171.79 637.39 236.53 367.61 282.68 368.45 206.66" fill="#586d98"/><polygon points="18.95 250.53 18.38 229.83 70.58 233.43 64.11 253.8 18.95 250.53" fill="#586e98"/><polygon points="158.39 527.63 152.17 547.26 71.53 535.58 77.94 516.25 158.39 527.63" fill="#6d80a3"/><polygon points="352.04 205.66 368.45 206.66 369.63 275.92 290.41 270.19 297.11 249.03 352.86 252.87 352.04 205.66" fill="#586e98"/><polygon points="383.96 124.31 385.33 207.7 368.45 206.66 352.04 205.66 311.63 203.18 226.69 197.99 165.57 194.24 84.62 189.29 17.14 185.16 2.21 184.24 0 105.97 383.96 124.31" fill="#d7d7d7"/><polygon points="18.38 229.83 17.14 185.16 84.62 189.29 70.58 233.43 18.38 229.83" fill="#667aac"/><polygon points="0 105.97 277.19 79.29 652.62 94.76 383.96 124.31 0 105.97" fill="#aaaaad"/><polygon points="171.85 485.1 158.39 527.63 77.94 516.25 91.83 474.37 171.85 485.1" fill="#798ab3"/><polygon points="155 384.23 148.76 404.21 67.81 394.41 74.24 374.74 155 384.23" fill="#6d80a3"/><polygon points="168.51 340.96 155 384.23 74.24 374.74 88.18 332.12 168.51 340.96" fill="#798ab3"/><polygon points="235.33 637.45 220.6 679.47 200.36 676.13 198.75 631.68 235.33 637.45" fill="#667aac"/><polygon points="95.04 63.88 82.66 103.21 46.87 101.54 59.06 62.45 95.04 63.88" fill="#798ab3"/><polygon points="152.17 547.26 158.39 527.63 217.47 535.98 210.64 555.73 152.17 547.26" fill="#586e98"/><polygon points="151.96 239.03 145.68 259.7 64.11 253.8 70.58 233.43 151.96 239.03" fill="#6d80a3"/><polygon points="158.39 527.63 171.85 485.1 232.25 493.19 217.47 535.98 158.39 527.63" fill="#667aac"/><polygon points="148.76 404.21 155 384.23 214.31 391.2 207.46 411.31 148.76 404.21" fill="#586e98"/><polygon points="165.57 194.24 151.96 239.03 70.58 233.43 84.62 189.29 165.57 194.24" fill="#798ab3"/><polygon points="155 384.23 168.51 340.96 229.15 347.63 214.31 391.2 155 384.23" fill="#667aac"/><polygon points="304.6 693.34 298 713.07 213.8 698.87 220.6 679.47 304.6 693.34" fill="#6d80a3"/><polygon points="133.28 65.41 119.93 104.95 165.42 107.07 36.19 101.04 35.11 61.5 59.06 62.45 46.87 101.54 82.66 103.21 95.04 63.88 133.28 65.41" fill="#667aac"/><polygon points="164.48 66.65 165.42 107.07 119.93 104.95 133.28 65.41 164.48 66.65" fill="#798ab3"/><polygon points="318.9 650.64 304.6 693.34 220.6 679.47 235.33 637.45 318.9 650.64" fill="#798ab3"/><polygon points="145.68 259.7 151.96 239.03 211.74 243.15 204.85 263.99 145.68 259.7" fill="#586e98"/><polygon points="301.81 547.91 295.18 567.98 210.64 555.73 217.47 535.98 301.81 547.91" fill="#6d80a3"/><polygon points="151.96 239.03 165.57 194.24 226.69 197.99 211.74 243.15 151.96 239.03" fill="#667aac"/><polygon points="316.16 504.44 301.81 547.91 217.47 535.98 232.25 493.19 316.16 504.44" fill="#798ab3"/><polygon points="298.99 401.15 292.34 421.58 207.46 411.31 214.31 391.2 298.99 401.15" fill="#6d80a3"/><polygon points="318.9 650.64 358.64 656.91 359.43 702.4 304.6 693.34 318.9 650.64" fill="#667aac"/><polygon points="378.02 850.14 375.12 849.59 205.49 817.61 201.11 696.74 213.8 698.88 298 713.07 375.91 726.2 378.02 850.14" fill="#d7d7d7"/><polygon points="371.86 659 374.78 659.46 375.91 726.2 298 713.07 304.6 693.34 359.43 702.4 358.64 656.91 371.86 659" fill="#586e98"/><polygon points="313.39 356.9 298.99 401.15 214.31 391.2 229.15 347.63 313.39 356.9" fill="#798ab3"/><polygon points="369.34 511.57 372.27 511.96 373.42 579.32 295.18 567.98 301.81 547.91 356.86 555.7 356.06 509.78 369.34 511.57" fill="#586e98"/><polygon points="316.16 504.44 356.06 509.79 356.86 555.7 301.81 547.91 316.16 504.44" fill="#667aac"/><polygon points="374.78 659.45 371.87 658.99 235.34 637.44 198.76 631.67 197.1 585.74 196.92 585.71 195.73 553.59 159.68 548.34 210.65 555.72 295.19 567.97 373.42 579.31 374.78 659.45" fill="#d7d7d7"/><polygon points="297.11 249.03 290.41 270.19 204.85 263.99 211.74 243.15 297.11 249.03" fill="#6d80a3"/><polygon points="313.39 356.9 353.46 361.3 354.27 407.65 298.99 401.15 313.39 356.9" fill="#667aac"/><polygon points="370.9 431.08 372.27 511.96 369.34 511.57 10.34 463.45 8.19 387.2 22.99 388.99 67.81 394.41 148.76 404.21 207.46 411.31 292.34 421.58 370.9 431.08" fill="#d7d7d7"/><polygon points="366.8 362.77 369.74 363.09 370.9 431.08 292.34 421.58 298.99 401.15 354.27 407.65 353.46 361.3 366.8 362.77" fill="#586e98"/><polygon points="311.63 203.18 297.11 249.03 211.74 243.15 226.69 197.99 311.63 203.18" fill="#798ab3"/><polygon points="368.35 281.47 369.74 363.09 366.8 362.77 6.38 323.12 3.47 250.41 368.35 281.47" fill="#d7d7d7"/><polygon points="296.53 54.38 567.97 29.77 568.64 91.3 297.79 120.19 296.53 54.38" fill="#bbb"/><polygon points="34.66 44.69 296.53 54.38 297.79 120.19 36.37 107.71 36.19 101.04 165.42 107.07 164.48 66.65 133.28 65.41 95.04 63.88 59.06 62.45 35.11 61.5 34.66 44.69" fill="#bcbcbc"/><polygon points="302.2 30.58 302.66 54.6 296.53 54.38 34.66 44.69 29.06 44.48 28.43 21.53 302.2 30.58" fill="#576f94"/><polygon points="28.43 21.53 305.88 0 573.71 7.51 302.2 30.58 28.43 21.53" fill="#5e779f"/><polygon points="302.2 30.58 573.71 7.51 573.95 29.96 302.66 54.6 302.2 30.58" fill="#576e93"/><polygon points="311.63 203.18 352.04 205.66 352.86 252.87 297.11 249.03 311.63 203.18" fill="#667aac"/><polygon points="383.96 124.31 652.62 94.76 653.26 172.66 385.33 207.7 383.96 124.31" fill="#d6d6d6"/><polygon points="373.23 571.35 26.93 522.17 12.13 526.97 373.33 579.35 373.23 571.35" fill="#aaaaad"/><g id="Door_left_side"><polygon points="219.26 825.75 205.7 823.49 195.73 553.6 206.83 542.45 219.26 825.75" fill="#c7c7c9"/><polygon points="221.36 549.82 220.58 531.75 214.5 536.64 215.4 556.42 221.36 549.82" fill="#898989"/><polygon points="206.83 542.61 51.28 519.71 61.36 514.36 214.5 536.48 206.83 542.61" fill="#aaaaad"/><polygon points="62.29 534.24 195.73 553.6 206.83 542.62 51.28 519.68 62.29 534.24" fill="#c7c7c9"/><polygon points="227.3 820.67 214.5 536.42 206.83 542.62 219.3 825.7 227.3 820.67" fill="#898989"/><polygon points="70.73 509.49 221.36 531.75 214.5 536.64 61.36 514.36 70.73 509.49" fill="#aaaaad"/></g><polygon points="26.46 514.64 12.13 526.97 26.74 522.27 26.46 514.64" fill="#aaaaad"/><polygon points="375.82 726.22 375.73 718.69 227.4 694.5 221.73 700.17 375.82 726.22" fill="#aaaaad"/><polygon points="370.95 431.13 370.74 422.8 22.81 382.17 8.2 387.26 370.95 431.13" fill="#aaaaad"/><polygon points="18.53 244.01 3.47 250.41 368.35 281.47 379.5 273.75 18.53 244.01" fill="#aaaaad"/><polygon points=".13 105.99 36.09 102.65 324.23 117.52 297.79 120.19 .13 105.99" fill="#aaaaad"/><polyline points="22.81 382.17 8.2 387.26 22.67 374.55" fill="#aaaaad"/><polygon points="3.47 250.41 18.91 244.39 18.53 235.97 3.47 250.41" fill="#aaaaad"/><polygon points=".13 106.04 36.27 102.6 35.94 95.44 .13 106.04" fill="#aaaaad"/><polygon points="10.63 111.87 12.89 180.2 375.43 201.66 374.3 130.51 10.63 111.87" fill="#fafbfc"/></g><g id="middle_divider"><polygon points="382.76 283.1 383.2 309.61 383.46 325.32 384.32 377.51 385.57 453.14 386.18 490.06 387.43 565.16 388.03 601.83 389.27 676.41 389.87 712.82 391.1 786.88 392.19 852.81 375.12 849.59 378.02 850.14 375.91 726.2 374.78 659.46 371.86 659 374.78 659.46 373.42 579.32 372.27 511.96 369.34 511.57 372.27 511.96 370.9 431.08 369.74 363.09 366.8 362.77 369.74 363.09 368.35 281.47 382.76 283.1" fill="#d7d7d7"/></g><g id="middle_divider_top"><polygon points="379.58 273.69 637.37 233.79 653.26 234.07 382.76 283.1 368.35 281.47 379.58 273.69" fill="#aaaaad"/></g><g id="Building_company_logo"><g id="FaceCake_logo"><g isolation="isolate"><g clip-path="url(#clippath)"><polyline points="69.92 120.99 52.21 120.09 52.19 156.83 53.89 156.92 53.9 139.13 69.07 139.92 69.07 138.18 53.9 137.39 53.91 121.91 69.92 122.73 69.92 120.99"/><path d="M84.92,144.92l6.64-20.92h.18s6.65,21.63,6.65,21.63l-13.48-.71M92.81,122.16l-2.23-.11-11.64,36.22,1.76.09,3.75-11.77,14.41.76,3.74,12.18,1.81.1-11.6-37.47"/><path d="M127.33,123.27c-1.94-.1-3.68.22-5.2.96s-2.81,1.88-3.86,3.44-1.86,3.51-2.41,5.87-.83,5.11-.83,8.26.28,5.92.82,8.32,1.35,4.43,2.39,6.08,2.34,2.92,3.85,3.8,3.25,1.38,5.2,1.48c1.28.07,2.47-.07,3.56-.39s2.09-.83,2.98-1.49,1.68-1.49,2.35-2.45,1.24-2.05,1.68-3.26l-1.4-.92c-.38,1.11-.87,2.1-1.45,2.96s-1.26,1.59-2.03,2.17-1.63,1.02-2.58,1.3-1.99.39-3.12.33c-1.62-.09-3.08-.5-4.36-1.23s-2.38-1.79-3.28-3.15-1.59-3.06-2.06-5.05-.71-4.31-.71-6.93v-2.95c0-2.62.26-4.91.73-6.87s1.17-3.59,2.07-4.88,2-2.24,3.28-2.85,2.74-.88,4.36-.79c1.05.05,2.03.27,2.94.62s1.74.85,2.49,1.48,1.42,1.38,2,2.25,1.07,1.85,1.47,2.93l1.45-.82c-.45-1.18-1.02-2.26-1.69-3.23s-1.44-1.83-2.31-2.54-1.84-1.29-2.9-1.71-2.21-.66-3.44-.73"/><polyline points="170.68 126.12 152.33 125.19 152.27 162.19 170.61 163.17 170.62 161.41 154.01 160.53 154.03 144.36 169.99 145.2 169.99 143.44 154.03 142.61 154.06 127.02 170.67 127.87 170.68 126.12"/><path d="M197.57,126.84c-2.16-.11-4.13.23-5.86.99s-3.23,1.95-4.46,3.53-2.19,3.58-2.84,5.96-1,5.13-1.01,8.25.33,5.88.98,8.28,1.6,4.42,2.82,6.07,2.72,2.92,4.45,3.81,3.69,1.4,5.86,1.51c1.47.08,2.81-.05,4.04-.38s2.34-.84,3.35-1.54,1.9-1.58,2.69-2.62,1.48-2.24,2.07-3.6l-5.03-3.62c-.27.82-.62,1.59-1.05,2.28s-.94,1.29-1.52,1.79-1.26.88-2.02,1.14-1.6.37-2.53.32c-1.15-.06-2.2-.34-3.12-.83s-1.73-1.18-2.38-2.06-1.17-1.96-1.52-3.22-.53-2.69-.53-4.28v-5.84c.01-1.58.2-3,.55-4.22s.87-2.26,1.53-3.1,1.46-1.46,2.39-1.87,1.98-.59,3.13-.53c.92.05,1.73.23,2.46.53s1.36.71,1.9,1.23,1.01,1.13,1.39,1.82.69,1.47.92,2.3l5.33-2.92c-.57-1.46-1.24-2.75-2.01-3.86s-1.65-2.05-2.63-2.81-2.09-1.35-3.31-1.77-2.56-.66-4.03-.74"/><path d="M229.34,150.8l4.24-15.08h.23s4.22,15.53,4.22,15.53l-8.7-.46M237.76,129.54l-7.76-.39-11.13,36.61,6.32.34,2.62-9.35,11.72.62,2.63,9.63,6.48.35-10.89-37.81"/><polyline points="287.42 132.06 280.18 131.69 271.92 142.66 267.19 149.42 266.96 149.41 267.01 131.02 260.74 130.7 260.64 167.99 266.91 168.32 266.94 157.32 271.37 151.67 280.79 169.07 288.26 169.47 275.81 147.03 287.42 132.06"/><polyline points="322.13 133.83 300.15 132.71 300.03 170.1 322.01 171.27 322.03 164.99 306.35 164.16 306.38 154.63 320.24 155.36 320.26 149.07 306.4 148.35 306.43 139.3 322.11 140.11 322.13 133.83"/></g></g></g><g id="Marketing_Technologies_logo"><g isolation="isolate"><g clip-path="url(#clippath-1)"><polyline points="64.57 161.55 61.82 161.41 58.41 168.71 58.34 168.71 54.9 161.05 52.04 160.91 52.04 176.21 54.43 176.34 54.44 165.35 54.52 165.35 55.55 167.84 58.3 173.77 61.04 168.13 62.08 165.74 62.16 165.75 62.15 176.74 64.56 176.87 64.57 161.55"/><path d="M73.56,175.57c-.24-.01-.46-.05-.64-.12s-.35-.16-.48-.29-.23-.27-.3-.45-.1-.38-.1-.61v-.37c0-.22.04-.42.12-.59s.2-.31.36-.42.36-.19.6-.24.52-.07.84-.05l1.58.08v1.51c0,.27-.06.5-.16.7s-.25.37-.43.5-.39.22-.63.28-.5.08-.77.07M73.86,165.63c-.51-.03-.96,0-1.36.09s-.77.21-1.08.39-.6.39-.84.65-.45.55-.63.87l1.46,1.57c.12-.19.25-.37.4-.54s.31-.31.49-.44.39-.22.62-.28.49-.09.78-.07c.33.02.61.08.85.18s.43.25.58.43.26.4.33.65.11.54.11.86v.84s-1.72-.09-1.72-.09c-.68-.04-1.29,0-1.82.12s-.98.31-1.35.59-.65.62-.83,1.05-.29.94-.29,1.52c0,.51.07.98.21,1.4s.35.79.62,1.1.61.56,1,.74.85.29,1.36.31c.37.02.72,0,1.04-.09s.61-.2.86-.38.47-.4.64-.67.3-.59.39-.95h.11c.04.31.11.58.21.83s.23.46.39.65.34.33.56.43.45.17.72.18l1.37.07v-2.24s-1-.05-1-.05v-5.41c0-.65-.09-1.24-.26-1.75s-.44-.96-.79-1.32-.79-.65-1.3-.86-1.12-.33-1.79-.36"/><path d="M89.49,166.7l-.54-.03c-.4-.02-.75.03-1.06.15s-.57.28-.78.49-.39.46-.53.73-.23.56-.29.86h-.1s0-2.37,0-2.37l-2.47-.13v11.48s2.46.13,2.46.13v-7.03c0-.31.06-.58.17-.8s.27-.4.48-.53.48-.22.79-.28.68-.07,1.09-.04l.77.04v-2.66"/><polyline points="96.48 162.27 94.01 162.14 94 178.42 96.47 178.55 96.47 175.05 97.8 173.47 100.39 178.76 103.32 178.91 99.48 171.67 102.97 167.4 100.17 167.26 97.91 170.09 96.57 172.09 96.47 172.08 96.48 162.27"/><path d="M109,172.42v-.18c0-.39.05-.76.15-1.08s.25-.6.44-.83.42-.4.68-.52.56-.17.88-.15.61.1.85.24.46.33.63.58.3.53.38.86.13.7.13,1.09v.2s-4.14-.22-4.14-.22M111.11,167.56c-.74-.04-1.4.07-1.98.32s-1.07.63-1.47,1.13-.71,1.12-.92,1.84-.32,1.55-.32,2.45.11,1.76.32,2.51.53,1.4.94,1.95.91.98,1.49,1.29,1.25.49,2,.53c.47.02.91,0,1.33-.08s.8-.2,1.15-.36.67-.37.96-.62.53-.53.74-.84l-1.33-1.77c-.16.22-.32.42-.49.6s-.36.34-.57.46-.43.23-.68.29-.52.09-.83.07c-.41-.02-.76-.11-1.07-.26s-.56-.35-.77-.61-.36-.56-.46-.9-.16-.73-.15-1.14v-.29s6.72.35,6.72.35v-.92c0-.79-.09-1.55-.27-2.25s-.46-1.34-.84-1.89-.85-1-1.43-1.33-1.26-.53-2.05-.57"/><path d="M123.65,165.32l-2.23-.12v1.96c0,.2-.02.37-.05.51s-.09.27-.16.36-.17.17-.3.21-.28.06-.46.05l-.78-.04v2.25s1.49.08,1.49.08v6.32c0,.47.05.89.16,1.26s.28.69.5.95.49.47.82.61.7.23,1.13.25l1.78.09v-2.25s-1.92-.1-1.92-.1v-7.01s2.08.11,2.08.11v-2.25s-2.07-.11-2.07-.11v-3.15"/><path d="M133.08,168.96l-2.49-.13v11.51s2.47.13,2.47.13v-11.52M131.84,163.96c-.26-.01-.47.01-.66.07s-.33.15-.45.27-.2.27-.26.43-.08.36-.08.56v.44c0,.21.03.4.08.57s.14.33.26.46.27.24.45.32.4.13.66.14.47-.01.65-.07.33-.15.45-.27.21-.27.26-.43.09-.36.09-.56v-.44c0-.2-.03-.39-.08-.57s-.14-.33-.26-.46-.27-.24-.45-.32-.4-.13-.65-.14"/><path d="M144.09,169.26c-.39-.02-.74.02-1.05.11s-.58.24-.81.42-.43.41-.59.66-.29.54-.4.85h-.09s0-1.93,0-1.93l-2.49-.13-.02,11.52,2.49.13v-7.62c.01-.31.07-.58.18-.8s.26-.41.45-.56.41-.25.65-.32.49-.09.75-.08c.3.02.55.08.76.2s.38.28.52.49.23.48.3.79.09.67.09,1.08v7s2.47.13,2.47.13v-7.29c.01-.72-.06-1.36-.2-1.93s-.35-1.05-.63-1.45-.62-.71-1.02-.93-.86-.35-1.39-.37"/><path d="M156.07,184.43c-.39-.02-.72-.07-.99-.15s-.49-.18-.66-.32-.29-.29-.37-.46-.11-.38-.11-.6c0-.12,0-.23.03-.34s.05-.21.09-.31.1-.19.16-.28.15-.17.24-.24l3.46.18c.32.02.58.06.81.12s.4.15.54.26.24.24.3.38.09.31.09.49c0,.24-.05.45-.14.63s-.23.32-.43.43-.43.18-.73.23-.64.05-1.05.03l-1.24-.07M156.67,175.77c-.3-.02-.56-.07-.79-.16s-.42-.21-.57-.37-.27-.35-.35-.57-.12-.48-.12-.76v-.38c0-.29.04-.55.12-.77s.2-.4.35-.54.35-.24.57-.3.49-.09.79-.07.56.07.78.15.42.21.57.36.27.35.35.57.12.48.12.78v.38c0,.29-.04.54-.12.75s-.2.39-.35.53-.35.24-.57.31-.49.09-.78.07M161.47,168.4l-1.58-.08c-.23-.01-.44.01-.62.07s-.33.16-.45.29-.22.3-.28.51-.1.45-.1.73v.38c-.13-.06-.26-.11-.41-.15s-.29-.08-.44-.11-.3-.06-.46-.08-.31-.03-.47-.04c-.69-.04-1.29.03-1.82.19s-.96.4-1.32.73-.62.73-.8,1.19-.27,1-.27,1.58c0,.38.04.75.12,1.09s.19.66.35.95.35.56.58.8.5.44.81.62v.09c-.25.05-.49.12-.71.21s-.43.22-.6.38-.32.34-.42.56-.16.48-.16.78c0,.23.03.46.09.66s.14.4.25.57.25.33.41.45.35.23.56.3v.24c-.28.04-.54.11-.76.21s-.41.24-.57.42-.28.39-.36.63-.12.53-.13.85c0,.42.08.81.26,1.16s.45.64.82.9.86.46,1.47.61,1.33.26,2.19.3c.97.05,1.79.01,2.48-.11s1.23-.33,1.65-.63.73-.66.92-1.12.29-.98.29-1.58c0-.52-.07-.99-.2-1.4s-.35-.77-.64-1.07-.66-.53-1.11-.7-.99-.27-1.61-.31l-2.73-.14c-.22-.01-.42-.04-.58-.08s-.3-.11-.41-.18-.19-.17-.24-.28-.08-.24-.08-.38c0-.13.02-.24.06-.35s.09-.2.16-.28.14-.15.23-.22.18-.11.28-.16c.11.04.23.07.35.11s.25.06.38.08.26.04.4.06.28.03.43.03c.69.04,1.3-.03,1.82-.18s.96-.4,1.32-.72.62-.72.8-1.18.27-.99.27-1.57c0-.35-.03-.69-.1-1.01s-.16-.62-.29-.9-.29-.53-.49-.76-.43-.44-.69-.62v-.3s2.16.11,2.16.11v-2.17"/><polyline points="182.91 167.65 172.6 167.12 172.59 169.7 176.46 169.9 176.44 182.76 179.02 182.9 179.04 170.03 182.91 170.23 182.91 167.65"/><path d="M188.24,176.56v-.18c0-.4.06-.76.16-1.08s.25-.6.44-.83.42-.41.68-.52.56-.17.89-.15.61.1.86.24.46.34.63.58.3.54.39.87.13.7.13,1.1v.2s-4.18-.22-4.18-.22M190.38,171.66c-.75-.04-1.42.07-2,.32s-1.08.63-1.49,1.14-.72,1.13-.93,1.85-.32,1.55-.32,2.47.11,1.77.32,2.52.53,1.41.95,1.96.92.99,1.51,1.3,1.27.49,2.03.53c.47.02.92,0,1.34-.08s.81-.2,1.17-.36.68-.37.97-.62.54-.53.75-.85l-1.35-1.78c-.16.22-.32.42-.5.6s-.37.34-.58.47-.44.23-.69.29-.53.09-.84.07c-.41-.02-.77-.11-1.08-.26s-.57-.35-.78-.61-.36-.56-.47-.91-.16-.73-.15-1.14v-.29s6.79.35,6.79.35v-.92c0-.79-.09-1.56-.27-2.27s-.47-1.35-.85-1.9-.86-1.01-1.45-1.34-1.28-.53-2.07-.57"/><path d="M204.04,172.37c-.75-.04-1.43.07-2.01.32s-1.08.63-1.48,1.13-.71,1.12-.92,1.85-.32,1.56-.32,2.49.1,1.78.31,2.53.51,1.41.91,1.96.89.98,1.48,1.29,1.26.49,2.01.53c.5.03.96-.01,1.38-.12s.81-.28,1.16-.51.65-.54.91-.91.48-.81.64-1.31l-1.93-1.14c-.09.26-.2.49-.32.71s-.27.4-.44.55-.37.27-.6.35-.49.11-.79.1c-.35-.02-.65-.1-.91-.24s-.48-.34-.66-.58-.31-.54-.39-.87-.13-.71-.13-1.11v-2.11c0-.4.05-.77.14-1.1s.22-.61.4-.84.4-.41.66-.52.57-.17.92-.15c.27.01.51.07.73.16s.41.22.57.38.3.34.41.55.19.44.25.68l2.06-.93c-.15-.46-.35-.88-.59-1.25s-.53-.7-.87-.97-.72-.49-1.14-.64-.9-.25-1.41-.28"/><path d="M215.33,168.39l-2.51-.13-.03,16.41,2.51.13.02-7.66c0-.31.06-.58.17-.81s.27-.41.46-.56.41-.25.65-.32.5-.09.76-.08c.3.02.56.08.77.2s.39.28.52.5.23.48.3.79.09.68.09,1.09l-.02,7.04,2.52.13.02-7.33c0-.72-.07-1.37-.21-1.94s-.35-1.05-.63-1.46-.62-.71-1.03-.93-.87-.35-1.4-.37c-.4-.02-.75.02-1.06.11s-.58.24-.82.42-.43.41-.6.67-.3.54-.4.85h-.1s.01-6.77.01-6.77"/><path d="M232.62,173.85c-.4-.02-.75.02-1.06.11s-.58.24-.82.42-.43.41-.6.67-.3.54-.4.85h-.1s0-1.94,0-1.94l-2.51-.13-.03,11.59,2.51.13.02-7.66c0-.31.06-.58.18-.81s.27-.41.46-.56.41-.25.66-.32.5-.09.76-.08c.3.02.56.08.77.2s.39.28.53.5.23.48.3.8.09.68.09,1.09l-.02,7.04,2.52.13.02-7.33c0-.72-.07-1.37-.21-1.94s-.35-1.06-.63-1.46-.62-.71-1.03-.94-.88-.35-1.4-.38"/><path d="M245.52,184.37c-.32-.02-.62-.09-.88-.22s-.48-.32-.67-.56-.33-.53-.42-.87-.15-.73-.15-1.17v-2.16c0-.43.06-.81.16-1.14s.24-.6.43-.82.41-.38.67-.48.56-.15.88-.13.63.09.89.22.49.32.68.55.33.53.43.86.15.72.15,1.16v2.16c0,.44-.06.83-.16,1.16s-.24.61-.43.83-.41.38-.68.48-.56.15-.89.13M245.54,174.52c-.73-.04-1.4.07-1.98.32s-1.09.63-1.51,1.13-.74,1.13-.96,1.86-.34,1.57-.34,2.5.11,1.78.33,2.54.54,1.42.95,1.97.92.99,1.5,1.3,1.25.49,1.98.53,1.41-.07,2-.32,1.1-.63,1.51-1.14.74-1.13.96-1.87.34-1.57.34-2.51-.11-1.78-.33-2.53-.54-1.41-.95-1.96-.92-.98-1.51-1.29-1.26-.49-2-.53"/><path d="M257.88,170.58l-2.53-.13-.04,13.65c0,.45.05.85.15,1.2s.26.66.47.91.47.45.79.59.69.22,1.12.25l1.36.07v-2.27s-1.36-.07-1.36-.07l.04-14.2"/><path d="M267.99,185.55c-.33-.02-.63-.09-.89-.22s-.49-.32-.67-.56-.33-.53-.43-.87-.15-.73-.15-1.17v-2.16c0-.43.06-.81.16-1.14s.24-.6.43-.82.41-.38.68-.48.56-.15.89-.13.63.09.9.22.49.32.68.55.33.53.43.87.15.73.15,1.16v2.17c0,.44-.06.83-.16,1.16s-.25.61-.43.83-.42.38-.68.49-.57.15-.9.13M268.02,175.68c-.74-.04-1.41.07-1.99.32s-1.09.63-1.51,1.13-.74,1.13-.96,1.86-.34,1.57-.34,2.5.11,1.79.33,2.54.54,1.42.95,1.97.92.99,1.5,1.3,1.25.49,1.99.53,1.41-.07,2-.32,1.1-.63,1.52-1.14.74-1.14.96-1.87.34-1.58.34-2.51-.11-1.78-.33-2.54-.54-1.41-.95-1.96-.92-.98-1.51-1.29-1.26-.49-2-.53"/><path d="M281.11,191.03c-.4-.02-.73-.07-1.01-.15s-.5-.19-.68-.32-.3-.29-.38-.47-.12-.38-.12-.6c0-.12.01-.23.03-.34s.05-.21.1-.31.1-.19.17-.28.15-.17.24-.24l3.52.19c.32.02.59.06.82.13s.41.15.55.26.24.24.3.39.09.32.09.5c0,.25-.05.46-.14.63s-.24.32-.44.43-.44.19-.74.23-.66.05-1.07.03l-1.27-.07M281.73,182.3c-.3-.02-.57-.07-.8-.16s-.43-.21-.58-.37-.28-.35-.36-.58-.12-.48-.12-.77v-.38c0-.3.04-.55.13-.77s.2-.4.36-.54.35-.24.59-.31.5-.09.8-.07.57.07.8.15.43.21.58.37.28.35.36.58.12.49.12.78v.38c0,.29-.04.54-.12.76s-.2.4-.36.54-.35.25-.58.31-.5.09-.8.07M286.63,174.87l-1.61-.08c-.24-.01-.45.01-.63.07s-.34.16-.46.29-.22.31-.28.51-.1.45-.1.74v.38c-.13-.06-.27-.11-.41-.15s-.29-.08-.45-.11-.31-.06-.47-.08-.32-.03-.48-.04c-.7-.04-1.31.03-1.85.19s-.98.41-1.34.73-.64.73-.82,1.2-.28,1.01-.28,1.6c0,.39.04.75.12,1.1s.2.66.35.96.35.56.59.8.51.45.82.62v.09c-.25.05-.49.12-.72.22s-.43.22-.61.38-.32.34-.42.57-.16.48-.16.78c0,.23.03.46.09.67s.14.4.26.58.25.33.42.46.35.23.56.3v.24c-.29.04-.55.11-.77.21s-.42.25-.58.42-.28.39-.37.64-.13.53-.13.86c0,.43.08.82.26,1.17s.45.65.83.91.87.46,1.49.62,1.35.26,2.22.31c.99.05,1.83.01,2.53-.11s1.25-.34,1.68-.63.74-.67.94-1.12.29-.99.3-1.6c0-.52-.06-1-.21-1.41s-.35-.78-.65-1.08-.67-.54-1.13-.71-1-.28-1.64-.31l-2.78-.15c-.23-.01-.43-.04-.6-.09s-.31-.11-.42-.18-.2-.17-.25-.28-.08-.24-.08-.38c0-.13.02-.24.06-.35s.09-.2.16-.28.15-.16.24-.22.18-.12.29-.16c.11.04.23.08.36.11s.25.06.38.08.27.04.41.06.28.03.43.03c.7.04,1.32-.03,1.86-.18s.98-.4,1.34-.72.63-.72.82-1.19.28-1,.28-1.58c0-.36-.03-.7-.1-1.02s-.17-.62-.3-.9-.3-.54-.5-.77-.43-.44-.7-.62v-.31s2.2.11,2.2.11v-2.19"/><path d="M293.97,177.3l-2.54-.13-.03,11.65,2.54.13.03-11.65M292.72,172.23c-.26-.01-.49.01-.68.07s-.34.15-.46.27-.21.27-.27.44-.09.36-.09.57v.44c0,.21.02.4.08.58s.14.33.26.47.27.24.46.32.41.13.68.14.48-.01.67-.07.34-.15.46-.27.21-.27.27-.44.09-.36.09-.57v-.44c0-.21-.03-.4-.08-.57s-.15-.33-.27-.47-.27-.24-.46-.32-.41-.13-.67-.14"/><path d="M301.63,182.47v-.18c0-.4.06-.77.16-1.09s.26-.61.45-.84.43-.41.7-.52.57-.17.91-.15.62.1.88.24.47.34.64.59.31.54.39.87.13.71.13,1.11v.2s-4.26-.22-4.26-.22M303.81,177.54c-.76-.04-1.44.07-2.04.33s-1.1.64-1.51,1.15-.73,1.14-.95,1.87-.33,1.57-.33,2.49.11,1.78.33,2.54.54,1.42.96,1.98.93.99,1.53,1.31,1.29.5,2.05.54c.48.03.94,0,1.37-.08s.82-.2,1.19-.36.69-.38.99-.62.55-.53.77-.85l-1.37-1.79c-.16.22-.33.42-.51.61s-.38.34-.59.47-.44.23-.7.29-.54.09-.85.07c-.42-.02-.79-.11-1.1-.26s-.58-.36-.79-.62-.37-.57-.48-.91-.16-.74-.16-1.15v-.29s6.9.36,6.9.36v-.93c0-.8-.09-1.57-.27-2.28s-.47-1.36-.86-1.92-.88-1.02-1.47-1.35-1.3-.54-2.11-.58"/><path d="M317,178.22c-.59-.03-1.14.03-1.62.18s-.9.37-1.25.67-.62.68-.8,1.12-.29.95-.29,1.52c0,.53.07,1,.22,1.41s.37.77.66,1.07.65.56,1.08.76.92.36,1.48.46l1.03.21c.23.05.42.11.59.19s.29.17.4.28.18.23.22.37.07.29.07.46c0,.21-.03.39-.1.55s-.17.3-.31.41-.32.19-.54.24-.48.07-.79.05-.57-.07-.83-.15-.51-.21-.74-.35-.46-.33-.67-.53-.41-.44-.6-.69l-1.56,1.61c.26.35.53.66.83.94s.62.52.97.73.73.37,1.14.48.87.19,1.36.22c.65.03,1.24-.03,1.76-.19s.98-.4,1.35-.71.67-.71.87-1.16.31-.97.31-1.53c0-.49-.07-.93-.2-1.32s-.34-.74-.62-1.04-.63-.56-1.05-.76-.92-.37-1.48-.49l-1.06-.21c-.24-.06-.45-.13-.62-.21s-.31-.17-.42-.29-.19-.24-.24-.39-.07-.32-.07-.51c0-.18.03-.34.09-.48s.16-.27.28-.37.29-.17.49-.22.43-.06.71-.05c.25.01.5.06.73.13s.46.17.67.3.41.27.59.43.35.34.5.52l1.5-1.6c-.25-.3-.5-.58-.77-.82s-.55-.45-.87-.62-.67-.31-1.07-.41-.84-.17-1.35-.19"/></g></g></g></g><polygon points="51.65 532.7 51.28 519.71 62.47 534.27 51.65 532.7" fill="#c7c7c9"/><polygon points="906.18 559.96 905.86 542.42 892.07 563.94 906.18 559.96" fill="#c7c7c7"/></svg>