<svg xmlns="http://www.w3.org/2000/svg" xmlns:xlink="http://www.w3.org/1999/xlink" version="1.1" viewBox="0 0 100 125" xml:space="default"><g fill="white"><path d="M71.994,50.456c-0.002-0.022-0.008-0.042-0.01-0.063c0.016-2.66-2.055-4.904-4.742-5.049 c-0.99-0.056-1.938,0.182-2.752,0.643c-0.932-1.625-2.684-2.723-4.688-2.723c-0.883,0-1.74,0.222-2.502,0.623 c-0.916-1.677-2.697-2.817-4.74-2.817c-0.863,0-1.67,0.223-2.395,0.586v-15.02c0-2.872-2.338-5.208-5.21-5.208 c-2.873,0-5.211,2.336-5.211,5.208v25.111l-2.3-3.684c-0.926-1.617-2.657-2.623-4.519-2.623c-2.872,0-5.208,2.338-5.208,5.211 c0,1.079,0.324,2.104,0.938,2.981L39.51,77.092c0.112,0.285,0.24,0.57,0.382,0.836c0.013,0.025,0.026,0.053,0.04,0.078 c0.272,0.492,0.603,0.963,1.006,1.438c1.272,1.816,2.911,3.383,4.777,4.576v7.008c0,0.828,0.672,1.5,1.5,1.5H65.76 c0.828,0,1.5-0.672,1.5-1.5v-9.783c2.381-2.572,3.914-5.832,4.365-9.291c0.078-0.162,0.129-0.338,0.145-0.521 C72.367,64.719,72.441,57.859,71.994,50.456z M68.828,70.637c-0.066,0.148-0.109,0.307-0.125,0.471 c-0.309,3.186-1.73,6.195-4.004,8.473c-0.281,0.281-0.439,0.662-0.439,1.061v8.887H48.715v-6.355c0-0.541-0.291-1.039-0.76-1.307 c-1.815-1.025-3.405-2.479-4.597-4.197c-0.03-0.043-0.063-0.084-0.098-0.125c-0.274-0.316-0.494-0.625-0.672-0.936 c-0.01-0.02-0.021-0.039-0.031-0.059c-0.098-0.176-0.182-0.369-0.291-0.639L31.319,52.24c-0.044-0.096-0.099-0.188-0.162-0.271 c-0.287-0.383-0.438-0.838-0.438-1.319c0-1.219,0.99-2.211,2.208-2.211c0.788,0,1.522,0.427,1.944,1.162l5.102,8.174 c0.354,0.568,1.045,0.832,1.686,0.648c0.644-0.184,1.087-0.773,1.087-1.441V26.635c0-1.218,0.992-2.208,2.211-2.208 s2.21,0.991,2.21,2.208v23.205c0,0.828,0.672,1.5,1.5,1.5s1.5-0.672,1.5-1.5v-3.375c0-1.32,1.074-2.396,2.395-2.396 c1.322,0,2.396,1.075,2.396,2.396l-0.008,0.119c0,0.012,0.004,0.023,0.004,0.037c-0.002,0.024-0.008,0.048-0.008,0.073v4.417 c0,0.828,0.672,1.5,1.5,1.5s1.5-0.672,1.5-1.5v-3.922c0.453-0.568,1.129-0.926,1.857-0.926c1.322,0,2.398,1.076,2.398,2.4 c0,0.078-0.004,0.154-0.016,0.233c-0.002,0.015,0.002,0.027,0,0.042c-0.008,0.064-0.02,0.128-0.02,0.195v3.922 c0,0.828,0.672,1.5,1.5,1.5s1.5-0.672,1.5-1.5v-3.565c0.357-0.734,1.096-1.205,1.914-1.152c1.117,0.06,1.979,1.014,1.918,2.127 c-0.002,0.029,0.004,0.059,0.004,0.089c0.002,0.027-0.004,0.054-0.002,0.081C69.426,57.695,69.369,64.244,68.828,70.637z"/><path d="M29.113,16.964l6.144,4.464c0.267,0.193,0.575,0.287,0.881,0.287c0.464,0,0.921-0.214,1.215-0.618 c0.486-0.67,0.338-1.608-0.332-2.095l-6.144-4.464c-0.672-0.488-1.608-0.338-2.096,0.332 C28.294,15.539,28.443,16.477,29.113,16.964z"/><path d="M40.04,16.736c0.199,0.642,0.792,1.054,1.432,1.054c0.147,0,0.298-0.022,0.446-0.068c0.791-0.247,1.232-1.087,0.985-1.878 l-2.26-7.254c-0.245-0.791-1.086-1.234-1.878-0.986c-0.791,0.247-1.232,1.087-0.985,1.878L40.04,16.736z"/><path d="M53.797,21.715c0.305,0,0.613-0.093,0.879-0.286l6.129-4.444c0.67-0.486,0.818-1.424,0.332-2.095 c-0.486-0.672-1.424-0.82-2.094-0.334L52.914,19c-0.67,0.486-0.818,1.424-0.332,2.095C52.875,21.5,53.332,21.715,53.797,21.715z"/><path d="M47.875,17.67c0.154,0.051,0.311,0.075,0.465,0.075c0.633,0,1.221-0.402,1.426-1.035l2.352-7.207 c0.258-0.788-0.172-1.634-0.961-1.891c-0.785-0.26-1.635,0.172-1.891,0.96l-2.351,7.207C46.658,16.567,47.088,17.414,47.875,17.67z"/></g></svg>