<?xml version="1.0" encoding="UTF-8"?>
<svg id="Layer_1" data-name="Layer 1" xmlns="http://www.w3.org/2000/svg" viewBox="0 0 2446 678.93">
  <path d="M331.37,625.81l41.27,1.94s183.99-364.34,183.21-364.86c.84.52-211.32.52-212.23,0,.91.52-.97-226.74-1.94-227.2.97.65-40.36,2.46-41.2,1.94.84.52-185.09,374.19-185.93,373.67.84.52,188.65,4.28,188.65,4.28l28.18,210.29v-.06Z" fill="#fff"/>
  <path d="M339.47,0C152.24,0,0,152.24,0,339.47s152.24,339.47,339.47,339.47,339.47-152.24,339.47-339.47S526.69,0,339.47,0ZM321.97,395.83h-169.09L321.97,66.73v329.1ZM356.31,611.56v-329.1h169.09l-169.09,329.1Z" fill="#00be28"/>
  <path d="M822.52,563.62c-9.72-14.9-18.79-29.8-27.86-44.05,47.94-29.15,64.14-52.47,64.14-96.53v-254.6h-56.36v-48.59h119.85v290.23c0,73.85-21.38,115.31-99.77,153.54ZM1324.6,390c0,24.62,17.49,27.21,29.15,27.21s28.5-3.89,41.46-7.77v45.35c-18.14,5.83-36.93,10.37-62.84,10.37-31.1,0-67.37-11.66-67.37-66.08v-133.45h-33.04v-46h33.04v-68.02h59.6v68.02h75.15v46h-75.15v124.38ZM1448.98,586.29V218.97h57.01v22.03c22.67-17.49,47.94-28.5,79.04-28.5,53.77,0,96.53,37.57,96.53,118.55s-46.64,133.45-123.74,133.45c-18.79,0-33.69-2.59-49.24-5.83v126.98h-59.6v.65ZM1569.48,261.73c-17.49,0-39.52,8.42-60.25,26.56v125.03c12.96,2.59,26.56,4.53,44.7,4.53,42.11,0,66.08-26.56,66.08-82.28,0-51.18-17.49-73.85-50.53-73.85h0ZM1916.07,459.32h-55.71v-26.56h-1.3c-19.44,14.9-43.41,31.1-79.04,31.1-31.1,0-64.78-22.67-64.78-68.67,0-61.54,52.47-73.21,89.4-78.39l52.47-7.13v-7.13c0-32.39-12.96-42.76-43.41-42.76-14.9,0-49.88,4.53-78.39,16.2l-5.18-47.94c25.91-9.07,61.54-15.55,91.34-15.55,58.31,0,95.88,23.32,95.88,92.64v154.19h-1.3ZM1856.47,347.24l-49.24,7.77c-14.9,1.94-30.45,11.01-30.45,33.04,0,19.44,11.01,30.45,27.21,30.45,17.49,0,36.28-10.37,52.47-22.03v-49.24ZM2162.25,451.54c-24.62,8.42-46.64,13.6-74.5,13.6-89.4,0-125.03-51.18-125.03-125.68,0-78.39,49.24-126.98,128.92-126.98,29.8,0,47.94,5.18,68.02,11.66v50.53c-17.49-6.48-42.76-13.6-67.37-13.6-36.28,0-67.37,19.44-67.37,75.15,0,61.54,31.1,80.33,70.61,80.33,18.79,0,39.52-3.89,67.37-14.9v49.88h-.65ZM2274.97,322.62c5.18-5.83,9.07-11.66,84.22-103.01h77.74l-97.18,114.02,106.25,126.33h-77.74l-92.64-114.02v114.02h-59.6V119.85h59.6v202.77h-.65ZM1187.25,451.54c-31.1,9.72-57.66,13.6-88.75,13.6-76.44,0-123.74-38.22-123.74-127.62,0-65.43,40.17-125.03,117.26-125.03s103.01,53.12,103.01,103.65c0,16.84-1.3,25.91-1.94,35.63h-154.19c1.3,52.47,31.1,64.78,75.8,64.78,24.62,0,46.64-5.83,71.91-14.9v49.88h.65ZM1132.84,312.26c0-29.15-9.72-54.42-41.46-54.42-29.8,0-47.94,21.38-51.83,54.42h93.29Z" fill="#fff"/>
</svg>