<?xml version="1.0" encoding="UTF-8"?>
<svg id="Layer_1" data-name="Layer 1" xmlns="http://www.w3.org/2000/svg" viewBox="0 0 349.28 349.28">
  <path d="M174.64,0c96.39,0,174.64,78.25,174.64,174.64s-78.25,174.64-174.64,174.64S0,271.03,0,174.64,78.25,0,174.64,0h0ZM174.64,23.6c83.36,0,151.04,67.68,151.04,151.04s-67.68,151.04-151.04,151.04S23.6,258,23.6,174.64,91.28,23.6,174.64,23.6h0Z" fill="#c6c6c6" fill-rule="evenodd"/>
  <g>
    <path d="M164.82,111.8c0-4.63-1.84-9.07-5.12-12.35-3.28-3.27-7.72-5.11-12.35-5.11h-17.28c-4.63,0-9.07,1.84-12.35,5.11-3.28,3.28-5.11,7.72-5.11,12.35v125.68c0,4.63,1.84,9.07,5.11,12.35,3.28,3.28,7.72,5.11,12.35,5.11h17.28c4.63,0,9.07-1.84,12.35-5.11,3.28-3.28,5.12-7.72,5.12-12.35v-125.68h0Z" fill="#c6c6c6" fill-rule="evenodd"/>
    <path d="M236.67,111.8c0-4.63-1.84-9.07-5.11-12.35-3.28-3.27-7.72-5.11-12.35-5.11h-17.28c-4.63,0-9.07,1.84-12.35,5.11-3.28,3.28-5.12,7.72-5.12,12.35v125.68c0,4.63,1.84,9.07,5.12,12.35,3.28,3.28,7.72,5.11,12.35,5.11h17.28c4.63,0,9.07-1.84,12.35-5.11,3.28-3.28,5.11-7.72,5.11-12.35v-125.68h0Z" fill="#c6c6c6" fill-rule="evenodd"/>
  </g>
</svg>