<?xml version="1.0" encoding="UTF-8"?>
<svg id="Layer_1" data-name="Layer 1" xmlns="http://www.w3.org/2000/svg" viewBox="0 0 349.28 349.28">
  <path d="M174.64,0c96.39,0,174.64,78.25,174.64,174.64s-78.25,174.64-174.64,174.64S0,271.03,0,174.64,78.25,0,174.64,0h0ZM174.64,23.6c83.36,0,151.04,67.68,151.04,151.04s-67.68,151.04-151.04,151.04S23.6,258,23.6,174.64,91.28,23.6,174.64,23.6h0Z" fill="#c7c6c5" fill-rule="evenodd"/>
  <path d="M268.84,164.54c3.7,2.02,6,5.89,6,10.1s-2.3,8.09-6,10.1c-35.73,19.49-113.69,62.03-148.2,80.87-3.57,1.95-7.89,1.87-11.39-.21-3.49-2.07-5.64-5.84-5.64-9.9V93.77c0-4.06,2.14-7.82,5.64-9.9,3.49-2.07,7.82-2.15,11.39-.21,34.51,18.83,112.47,61.37,148.2,80.87h0Z" fill="#c7c6c5" fill-rule="evenodd"/>
</svg>