<?xml version="1.0" encoding="UTF-8"?><svg id="Globe" xmlns="http://www.w3.org/2000/svg" width="3260" height="3260" xmlns:xlink="http://www.w3.org/1999/xlink" viewBox="0 0 3260 3260"><defs><radialGradient id="radial-gradient" cx="1638.19" cy="1651.93" fx="1638.19" fy="1651.93" r="1601.75" gradientTransform="translate(544.38 -422.9) rotate(17.04)" gradientUnits="userSpaceOnUse"><stop offset=".48" stop-color="#319df5"/><stop offset="1" stop-color="#216bba"/></radialGradient></defs><path id="Whole_ocean" d="M3163.13,2100.55c-69.9,229.11-187.19,403.49-208.84,435.21-57.79,84.65-153.67,207.6-298.43,327.94-207.07,172.14-455.3,290.5-720.77,342.37-250.3,48.91-515.91,38.72-776.78-41.22C310.79,2905.14-165.71,2007.55,94,1160.03c48.7-158.9,119.81-304.76,208.82-435.18,85.51-125.29,355.47-479.64,855.89-629.42,549.23-164.39,1010.24,27.43,1172.88,106.89,446.48,218.14,655.76,572.24,697,644.71,257.88,453.17,230.49,938.96,134.53,1253.51Z" fill="url(#radial-gradient)"/><g id="Bottom_Land_Shadows"><path d="M784.75,2501.21c-46.91-9.61-94.17-26.09-128.79-59.17-22.67-21.67-38.66-51.78-42.14-82.52-2.42,37.06,15.21,75.56,42.6,101.75,34.61,33.08,81.88,49.56,128.79,59.17,218.2,44.68,458.78-52.7,584.45-236.59,33.63-49.21,60.67-104.97,107.67-141.62,47-36.65,123.78-45.29,161.16,1.13,10.88,13.51,16.74,29.58,18.63,46.52,1.26-23.83-4.17-47.21-19.1-65.75-37.39-46.42-114.16-37.77-161.16-1.13-47,36.65-74.04,92.42-107.67,141.62-125.68,183.89-366.25,281.27-584.45,236.59Z" fill="#393813"/><path d="M752.95,3002.18l3.89.06c34.33-30.96,61.82-70.62,73.27-115.41,4.97-19.45,6.67-39.89,4.88-59.92-.23,21.16-5.13,42.91-12.48,63.95-7.21,20.65-12.89,48.29-69.56,111.31Z" fill="#393813"/><path d="M378.93,1716.76c-.37,7.21-.16,14.66.82,22.39,11.5,90.78,64.83,194.31,156.29,197.26,66.72,2.15,122.63-52.86,151.99-112.81,29.37-59.94,40.91-127.31,69.69-187.54,71.6-149.9,259.36-234.9,417.82-185.05,130.29,40.99,224.87,171.18,232.26,305.82,1.07-141.28-96.25-282.11-232.73-325.05-158.46-49.85-346.22,35.15-417.82,185.05-28.77,60.23-40.32,127.6-69.69,187.54-29.37,59.94-85.28,114.96-151.99,112.81-91.46-2.95-144.8-106.48-156.29-197.26-.13-1.06-.24-2.11-.35-3.16Z" fill="#393813"/><path d="M1458.4,2647.75c0,38.04,5.12,76.04,15.67,112.65,37.04,128.53,139.77,236.22,266.41,279.27,67.22,22.85,139.59,28.32,206,53.44,49.35,18.66,97.16,52.8,120.96,98.13.76,1.44,1.49,2.9,2.2,4.36-1.72-10.37-5.43-25.54-14.11-42.09,0,0-8.1-16.05-20.83-29.6-22.51-23.96-52.02-36.16-88.69-50.03-66.41-25.12-138.77-30.59-206-53.44-126.64-43.05-229.37-150.74-266.41-279.27-8.77-30.43-13.75-61.83-15.2-93.42Z" fill="#393813"/><path d="M690.28,2698.34c-21.9,3.18-42.25,12.76-62.73,21.15-20.48,8.39-42.16,15.78-64.23,14.2-14.88-1.06-29.99-7.14-40.5-17.38,9.86,15.37,28.83,24.54,47.44,25.87,22.07,1.57,43.75-5.82,64.23-14.2,20.48-8.39,40.83-17.97,62.73-21.15,40.18-5.83,81.67,12,108.88,42.27-26.71-35.33-72.02-57.12-115.82-50.76Z" fill="#393813"/><path d="M431.41,2572.52c-38.13-2.22-73.87,17.49-94.07,49.9,23.42-23.6,62.88-43.63,101.01-41.41,21.53,1.25,42.41,11.56,57.14,27.13-14.58-20.24-38.87-34.16-64.08-35.62Z" fill="#393813"/><path d="M10.81,1443.66C2.15,1517.57-1.33,1590.68.12,1662.78c-1.4-72.54,2.08-145.72,10.68-219.11Z" fill="#393813"/><path d="M409.43,1520.09c8.95,13.25,13.51,25.79,15.01,37.94,2.2-18.25-1.3-36.92-15.47-57.17-36.07-51.55-79.57-35.63-199.95-28.72-65.83,3.78-197.31-31.39-197.31-31.39l-.51,1.66c212.49,102.04,332.58-19.53,398.24,77.67Z" fill="#393813"/></g><path id="Bottom_Land" d="M752.94,3002.9c121.18,77.13,254.66,139.4,398.7,183.54,309.55,94.86,625.7,92.84,915.81,11.26l2.79-1.38c-.71-1.46-1.44-2.92-2.2-4.36-23.8-45.33-71.61-79.47-120.96-98.13-66.41-25.12-138.77-30.59-206-53.44-126.64-43.05-229.37-150.74-266.41-279.27-37.04-128.53-7.36-274.37,76.95-378.21,29.21-35.98,64.66-67.43,87.24-107.91,22.57-40.47,29.31-94.83.25-130.93-37.39-46.42-114.16-37.77-161.16-1.13-47,36.65-74.04,92.42-107.67,141.62-125.68,183.89-366.25,281.27-584.45,236.59-46.91-9.61-94.17-26.09-128.79-59.17-34.61-33.08-53.66-85.83-36.35-130.47,21.46-55.35,86.13-78.28,143.7-92.78,127.68-32.17,259.07-55.59,377.91-112.29,118.84-56.69,226.61-153.94,258.18-281.77,39.82-161.28-65.86-343.08-224.32-392.93-158.46-49.85-346.22,35.15-417.82,185.05-28.77,60.23-40.32,127.6-69.69,187.54-29.37,59.94-85.28,114.96-151.99,112.8-91.46-2.95-144.8-106.48-156.29-197.26-11.5-90.78,80.9-143.23,29.68-219.06-65.66-97.2-185.75,24.36-398.24-77.67l-.38,1.25c-50.07,427.29,73.26,847.5,324.75,1176.06l1.79,2.7c20.2-32.42,55.94-52.12,94.07-49.9,38.13,2.22,74.28,32.83,77.66,70.87,1.64,18.46-3.82,37.76,2.28,55.26,7.28,20.9,29.9,33.47,51.97,35.04,22.07,1.57,43.75-5.82,64.23-14.2,20.48-8.39,40.83-17.97,62.73-21.15,45.75-6.64,93.21,17.38,119.33,55.53,26.12,38.14,31.94,88.18,20.49,132.97-11.44,44.79-38.94,84.45-73.27,115.41l-4.51-.07Z" fill="#009245"/><g id="Top_Land_Shadows"><path d="M2764.18,2650.36s-1.17-4.61-1.9-6.81c-4-12.02-11.96-22.65-23.43-30.58-11.07-7.66-25.84-13.12-44.71-15.83-30.87-5.45-62.37-5.82-93.65-6.59-219.21,6.11-403.45-214.75-347.71-429.29,30.18-102.78-58.52,108.64,11.04,241.93,144.31,287.58,410.57,153.64,483.95,221.87,7.53,7,16.78,26.65,16.78,26.65l-.38-1.36Z" fill="#393813"/><path d="M2715.07,983.76c1,40.56-9.4,81.43-2.57,121.42,23.62,138.22,218.58,170.17,289.85,290.93,23.21,39.33,30.04,84.12,24.62,128.74,11.1-51.96,6.33-105.47-20.83-151.49-71.28-120.76-266.23-152.71-289.85-290.93-6.84-39.99,3.57-80.86,2.57-121.42-1-40.56-19.23-86.43-58.29-97.43-51.88-14.61-94.62,38.35-137.36,71.18-79.51,61.07-203.8,53.33-275.11-17.14-43.2-42.7-75.43-108.35-135.88-114.26-61.96-6.06-106.92,55.45-138.06,109.36-35.21,60.96-70.42,121.92-105.63,182.88-16.76,29.02-35.53,59.88-66.3,73.16-45.9,19.81-100.85-9.4-127.76-51.53-26.9-42.13-33.15-93.69-40.82-143.08-22.66-146.03-81.04-309.47-219.95-359.87-45.13-16.37-102.19-24.44-121.35-68.46-4.76-10.93-6.26-21.97-5.66-33.12-4.98,18.92-6.1,37.55,1.87,55.87,19.16,44.02,76.22,52.08,121.35,68.46,138.92,50.4,197.3,213.84,219.95,359.87,7.66,49.4,13.91,100.95,40.82,143.08,26.9,42.13,81.86,71.34,127.76,51.53,30.77-13.28,49.54-44.14,66.3-73.16,35.21-60.96,70.42-121.92,105.63-182.88,31.14-53.91,76.1-115.41,138.06-109.36,60.45,5.91,92.68,71.56,135.88,114.26,71.31,70.47,195.6,78.22,275.11,17.14,42.74-32.83,85.48-85.79,137.36-71.18,39.06,11,57.29,56.87,58.29,97.43Z" fill="#393813"/><path d="M1158.61,96.75c115.28,63.47,180.53,172.73,165.92,298.63.04,2.04.03,4.09-.05,6.17-.04.91-.15,1.81-.21,2.72,2.16-8.44,3.66-16.93,4-25.47.08-2.07.09-4.13.05-6.17,13.61-117.26-47.59-231.53-152.91-285.17-.05.02-.11.03-.16.05-9.58-5.95-19.86-9.5-29.79-14.24" fill="#393813"/></g><path d="M1978.43,3100.21l-31.97-26.47c145.83,51.02,713.54-170.1,779.26-313.72,18.71-40.87,36.27-77.75,39.02-108.13,5.98,33.56-15.34,77.84-38.39,128.21-61.7,134.82-565.76,337.94-747.92,320.11Z" fill="#393813"/><path d="M2070.84,3196.28l-123.75-102.45c8.93,3.13,19.45,5.23,31.34,6.39,182.16,17.83,686.22-185.28,747.92-320.11,23.04-50.36,44.36-94.65,38.39-128.21-.98-5.55-2.72-10.82-5.33-15.77-21.98-41.75-87.25-43.26-170.44-44.82-133.99-2.51-262.87-88.57-316.53-211.38-53.66-122.8-29.25-275.84,59.95-375.87,76.46-85.73,188.89-128.62,297.52-165.98,108.64-37.34,221.9-74.41,305.83-152.85,83.92-78.44,128.92-211.95,70.53-310.88-71.28-120.76-266.24-152.71-289.86-290.94-6.83-40,3.57-80.85,2.57-121.42-1-40.57-19.23-86.44-58.29-97.43-51.88-14.61-94.62,38.34-137.37,71.18-79.51,61.07-203.8,53.33-275.11-17.15-43.21-42.69-75.42-108.35-135.88-114.25-61.96-6.06-106.93,55.45-138.06,109.35-35.2,60.96-70.42,121.91-105.63,182.88-16.76,29.02-35.53,59.88-66.3,73.16-45.89,19.81-100.84-9.4-127.75-51.54-26.9-42.13-33.15-93.68-40.81-143.08-22.67-146.03-81.05-309.46-219.96-359.87-45.13-16.38-102.19-24.44-121.35-68.46-12.97-29.78-1.94-60.37,10.75-91.71,2.15-4.91,4.18-9.9,6.07-14.98,8.02-19.99,15.28-40.28,16.12-60.83.08-2.08.09-4.13.06-6.17,14.6-125.9-57.34-249.5-177.23-297.16-.99-.95-1.62-.8-2.66-1.72l30.6-9.01c294.96-86.58,617.73-90.67,933.63,6.15,859.21,263.3,1342.29,1173.28,1078.99,2032.49-97.8,319.15-284.82,586.4-525.33,782.79-.08,0-.2-.07-.38-.19-175.74,145.79-373.17,249.05-592.26,309.8Z" fill="#009245"/><path d="M1922.44,2812.56c31,17.69,65.26,30.1,99.28,40.81,25.17,7.92,51.05,13.58,77.22,16.86,38.96,4.89,77.3,8.39,116.51,5.36,9.45-1.38,18.9-2.75,28.35-4.13,14.5-3.48,27.12-10.15,37.87-20.03,8.7-5.12,15.55-12.08,20.54-20.87,10.21-11.33,16.94-24.63,20.18-39.89,1.1-9.62,2.2-19.23,3.3-28.85-1.38-9.45-2.75-18.9-4.13-28.35-3.48-14.5-10.15-27.12-20.03-37.87-8.19-12.66-19.14-22.52-32.86-29.59-25.74-12.63-53.98-21.09-77.21-37.89-120.8-87.38-129.05-169.25-145.99-209.32-59.9-141.68-56.06-308.94,10.27-447.72,66.33-138.79,194.07-246.82,341.94-289.2,53.41-15.31,109.14-22.46,161.33-41.55,52.18-19.09,102.5-53.03,123.84-104.33,26.21-63.03,1.73-138-43-189.57-44.72-51.57-106.52-84.65-166.84-116.59-80.47-42.6-160.93-85.2-241.4-127.8-33.21-17.58-70.62-35.7-106.86-25.74-62.53,17.2-74.31,98.02-99.79,157.66-32.5,76.05-106.8,132.62-188.76,143.71-73.2,9.91-142.72-16.69-197.67-64.03-53.45-46.05-110.13-65.72-145.64-135.09-32.5-63.5-45.58-134.94-70.35-201.83-24.77-66.89-65.9-133.43-131.78-160.78-49.32-20.48-110.7-18.6-147.4-57.38-32.42-34.26-34.73-90.71-70.79-121.11-28.04-23.64-70.14-24.37-104.12-10.6-33.99,13.77-61.43,39.73-86.74,66.26-153.07,160.51-259.38,365.1-302.73,582.61-11.51,57.73-10.7,132.38,42.36,157.88,45.12,21.68,99.21-9.71,128.95-49.97,29.74-40.26,46.13-89.69,79.21-127.26,65.66-74.57,180.63-83.45,276.89-58.85,123.38,31.53,234.17,109.94,304.93,215.82,70.76,105.88,100.83,238.24,82.76,364.29-8.98,62.64-21.32,143.46,34.11,173.96,56.8,31.25,127.34-27.05,190.07-10.67,35.67,9.31,61.55,42.21,71.7,77.65,10.15,35.44,7,73.27,1.49,109.72-12.46,82.3-36.49,162.42-51.46,244.3-14.98,81.88-20.62,167.63,3.43,247.32,21.84,72.38,87.54,140.44,179.02,192.65Z" fill="#3fa9f5"/><path id="Top_Lake" d="M1934.47,453.23c-27.59,59.34-10.34,108.48-32.37,117.36-8.13,3.28-27.09,6.34-31.68-9.44-20.06-68.91-64.7-130.58-124.35-170.58-30.06-20.16-63.61-34.99-92.21-57.17-28.6-22.18-52.69-54.41-52.67-90.6.01-31.71,20.37-62.48,49.54-74.91,29.17-12.42,65.47-5.76,88.33,16.2,18.67,17.94,28.91,44.77,51.45,57.51,44.97,25.42,103.31-21.52,151.57-3.07,36.82,14.08,44.37,61.73,45.79,68.81,6.56,32.84-5.2,60.04-15.99,84.97-15.09,34.88-23.48,30.98-37.41,60.92Z" fill="#3f8bf5"/><g id="Top_Lake_Shadows"><path d="M1941.38,237.57c-42.98-15.27-93.71,19.81-135.83,9.22,51.69,19.95,98.53-18.58,135.83-9.22Z" fill="#393813"/><path d="M1600.74,242.54c-.01,36.19,24.07,68.42,52.67,90.6,28.6,22.18,62.16,37.01,92.21,57.17,59.65,40.01,104.3,101.67,124.35,170.58,2.23,7.67,9.13,13.09,20.92,12.22-3.64-1.79-11.73-4.24-15.15-15.46-20.92-68.65-62.08-127.25-121.73-167.26-30.06-20.16-63.61-34.99-92.21-57.17-28.6-22.18-55.22-52.73-55.21-88.92.01-31.71,20.37-62.48,49.54-74.91,16.55-7.05,35.39-7.94,52.78-3.39-18.94-6.43-40.21-6.22-58.64,1.63-29.17,12.42-49.53,43.2-49.54,74.91Z" fill="#393813"/></g></svg>