<?xml version="1.0" encoding="UTF-8"?>
<svg id="Layer_1" data-name="Layer 1" xmlns="http://www.w3.org/2000/svg" viewBox="0 0 3090.66 567.24">
  <path d="M1449.95,231.27h-98.41v10.44c30.78,0,35.73,6.6,35.73,45.63v70.38c0,39.03-4.94,46.19-35.73,46.19-23.63-3.3-39.58-15.94-61.57-40.14l-25.29-27.49c34.08-6.06,52.22-27.49,52.22-51.69,0-30.23-25.83-53.32-74.22-53.32h-96.76v10.44c30.78,0,35.73,6.6,35.73,45.63v70.38c0,39.03-4.94,46.19-35.73,46.19v10.44h109.4v-10.44c-30.78,0-35.73-7.15-35.73-46.19v-19.78h9.35l61.03,76.41h159.99c78.62,0,112.71-41.78,112.71-91.81,0-50.03-34.09-91.26-112.71-91.26h0ZM1219.6,320.88v-73.11h22.54c24.74,0,35.74,17.04,35.74,36.83s-11,36.28-35.74,36.28h-22.54ZM1451.61,397.31h-3.85c-19.79,0-22.54-4.94-22.54-30.23v-119.31h26.39c57.18,0,67.61,41.78,67.61,74.22,0,33.53-10.44,75.32-67.61,75.32ZM839.71,341.23l37.93-112.17c11-32.44,6.06-41.77-29.13-41.77v-11h103.36v11c-34.63,0-42.88,8.24-56.62,48.38l-62.68,188.03h-7.14l-56.08-172.08-57.17,172.08h-7.15l-61.02-188.02c-13.19-40.13-21.99-48.38-53.88-48.38v-11h122.05v11c-32.44,0-41.24,7.69-29.69,41.77l36.83,112.17,55.52-164.94h10.45l54.43,164.94ZM1026.63,421.49c-60.47,0-109.95-44.53-109.95-98.96s49.48-98.41,109.95-98.41,109.95,44.53,109.95,98.41-49.48,98.96-109.95,98.96ZM1026.63,241.17c-50.57,0-68.18,45.62-68.18,81.36s17.6,81.37,68.18,81.37,68.73-45.08,68.73-81.37-17.59-81.36-68.73-81.36h0Z" fill="#fcfcfc"/>
  <path d="M1698.44,403.35v11h-125.9v-11c36.84,0,43.44-9.35,43.44-64.33v-87.95c0-54.99-6.6-63.77-43.44-63.77v-11h113.8c56.62,0,87.97,29.14,87.97,68.18s-31.35,67.62-87.97,67.62h-31.34v26.93c0,54.99,6.6,64.33,43.44,64.33h0ZM1686.35,196.08h-31.34v95.67h31.34c30.79,0,45.08-21.44,45.08-47.28,0-26.39-14.29-48.39-45.08-48.39ZM2152,362.67l-2.75,9.89c-4.94,18.14-11,24.74-50.03,24.74h-7.7c-28.58,0-33.53-6.6-33.53-45.62v-25.29c42.88,0,46.19,3.84,46.19,32.44h10.45v-81.93h-10.45c0,28.59-3.3,32.44-46.19,32.44v-61.57h30.23c39.04,0,45.08,6.6,50.03,24.74l2.76,10.44h8.79l-3.84-51.68h-161.64v10.44c30.78,0,35.74,6.6,35.74,45.63v70.37c0,35.71-4.2,44.7-28.47,45.99-23.07-3.53-38.91-16.11-60.58-39.94l-25.29-27.49c34.09-6.06,52.23-27.49,52.23-51.69,0-30.23-25.84-53.32-74.22-53.32h-96.76v10.44c30.78,0,35.74,6.6,35.74,45.63v70.38c0,39.03-4.94,46.19-35.74,46.19v10.44h109.41v-10.44c-30.78,0-35.74-7.15-35.74-46.19v-19.78h9.35l61.02,76.41h225.95l3.3-51.67h-8.26ZM1860.63,320.88v-73.11h22.54c24.74,0,35.74,17.04,35.74,36.83s-11,36.28-35.74,36.28h-22.54ZM2263.61,421.49c-21.99,0-41.24-11.54-49.48-18.69-2.75,2.75-7.69,11-8.79,18.69h-10.45v-75.87h11c4.4,36.29,29.69,57.73,62.13,57.73,17.59,0,31.89-9.9,31.89-26.38,0-14.29-12.64-25.29-35.19-35.74l-31.34-14.84c-22-10.45-38.48-28.6-38.48-52.78,0-26.39,24.74-48.93,58.83-48.93,18.14,0,33.53,6.6,42.88,14.3,2.75-2.2,5.5-8.25,7.15-14.85h10.44v64.88h-11.55c-3.85-25.84-18.14-47.28-47.28-47.28-15.39,0-29.69,8.79-29.69,22.55s11.54,21.99,37.94,34.08l30.23,14.84c26.39,12.64,36.83,33,36.83,49.49,0,34.63-30.24,58.81-67.07,58.81h0ZM2432.94,421.49c-22,0-41.24-11.54-49.48-18.69-2.75,2.75-7.69,11-8.79,18.69h-10.45v-75.87h11c4.4,36.29,29.68,57.73,62.13,57.73,17.59,0,31.89-9.9,31.89-26.38,0-14.29-12.64-25.29-35.19-35.74l-31.34-14.84c-21.99-10.45-38.48-28.6-38.48-52.78,0-26.39,24.74-48.93,58.83-48.93,18.14,0,33.53,6.6,42.88,14.3,2.75-2.2,5.5-8.25,7.14-14.85h10.45v64.88h-11.54c-3.85-25.84-18.14-47.28-47.28-47.28-15.39,0-29.69,8.79-29.69,22.55s11.55,21.99,37.94,34.08l30.23,14.84c26.39,12.64,36.83,33,36.83,49.49,0,34.63-30.24,58.81-67.06,58.81h0Z" fill="#fcfcfc"/>
  <g>
    <path d="M40.31,283.61c0,96.31,55.97,179.53,137.12,218.98L61.38,184.59c-13.91,31.16-21.09,64.9-21.06,99.02h0ZM447.87,271.33c0-30.07-10.8-50.89-20.06-67.1-12.33-20.04-23.89-37.01-23.89-57.06,0-22.37,16.96-43.19,40.85-43.19,1.08,0,2.1.13,3.16.19-43.29-39.66-100.96-63.87-164.31-63.87-85,0-159.78,43.61-203.29,109.67,5.71.17,11.09.29,15.66.29,25.45,0,64.84-3.09,64.84-3.09,13.12-.77,14.66,18.49,1.56,20.04,0,0-13.19,1.55-27.85,2.32l88.6,263.54,53.25-159.69-37.91-103.86c-13.1-.77-25.51-2.32-25.51-2.32-13.11-.77-11.57-20.81,1.54-20.04,0,0,40.18,3.09,64.09,3.09,25.44,0,64.84-3.09,64.84-3.09,13.12-.77,14.67,18.49,1.56,20.04,0,0-13.21,1.55-27.85,2.32l87.93,261.55,24.26-81.1c10.52-33.65,18.53-57.82,18.53-78.65h0Z" fill="#00749a"/>
    <path d="M287.89,304.89l-73,212.12c22.32,6.58,45.46,9.92,68.73,9.92,28.33,0,55.5-4.9,80.8-13.79-.68-1.06-1.26-2.18-1.73-3.35l-74.8-204.89ZM497.11,166.88c1.05,7.75,1.64,16.07,1.64,25.02,0,24.69-4.61,52.44-18.5,87.15l-74.32,214.87c72.33-42.18,120.99-120.55,120.99-210.31.06-40.8-10.19-80.96-29.81-116.73h0Z" fill="#00749a"/>
    <path d="M283.62,0C127.24,0,0,127.23,0,283.61s127.23,283.63,283.62,283.63,283.63-127.22,283.63-283.63c0-156.38-127.25-283.61-283.63-283.61ZM283.62,554.24c-149.21,0-270.62-121.4-270.62-270.63S134.4,13.01,283.62,13.01s270.6,121.39,270.6,270.6-121.4,270.63-270.6,270.63h0Z" fill="#00749a"/>
  </g>
  <g>
    <path d="M2517.36,400.81c0-10.5,8.4-18.9,18.9-18.9s18.9,8.4,18.9,18.9-8.4,18.9-18.9,18.9-18.9-8.4-18.9-18.9Z" fill="#fcfcfc"/>
    <path d="M2581.76,361.61c0-41.3,33.95-67.2,61.95-67.2s41.65,12.25,41.65,25.2c0,5.6-3.5,15.05-15.4,15.05-7.7,0-13.65-6.3-13.65-14,0-11.55-6.3-15.05-12.6-15.05-18.55,0-33.6,23.8-33.6,56,0,28,13.65,46.55,42.35,46.55,11.55,0,25.9-5.25,37.45-16.1l5.95,7.7c-13.3,14.35-32.2,23.1-52.15,23.1-38.85,0-61.95-26.25-61.95-61.25Z" fill="#fcfcfc"/>
    <path d="M2693.06,358.46c0-35.35,31.85-64.05,70.7-64.05s70.7,28.7,70.7,64.05-31.85,64.4-70.7,64.4-70.7-29.05-70.7-64.4ZM2806.11,358.46c0-28-13.3-50.75-42.35-50.75s-42.35,22.75-42.35,50.75,13.65,50.75,42.35,50.75,42.35-22.75,42.35-50.75Z" fill="#fcfcfc"/>
    <path d="M2838.31,409.56c23.1,0,27.65-5.95,27.65-40.95v-17.5c0-35-4.55-40.6-27.65-40.6v-7.35l46.55-8.75c1.75,3.5,4.9,17.85,5.95,25.2,9.45-11.9,25.2-25.2,45.5-25.2,21.35,0,32.55,10.15,37.45,26.25,8.05-11.55,28.35-26.25,49-26.25,31.15,0,40.25,22.4,40.25,52.15v22.05c0,35,4.55,40.95,27.65,40.95v7.35h-74.2v-7.35c19.25,0,21.7-3.85,21.7-40.95v-20.3c0-22.75-6.65-37.45-24.85-37.45-11.9,0-36.4,13.3-36.4,35v22.75c0,37.1,2.45,40.95,22.05,40.95v7.35h-68.95v-7.35c19.25,0,22.05-3.85,22.05-40.95v-20.3c0-22.75-7-37.45-25.2-37.45-12.25,0-36.05,13.3-36.05,35v22.75c0,36.4,2.45,40.95,21.7,40.95v7.35h-74.2v-7.35Z" fill="#fcfcfc"/>
  </g>
</svg>